<svg width="24" height="24" viewBox="0 0 24 24" fill="none" xmlns="http://www.w3.org/2000/svg">
<circle cx="12" cy="12" r="11.5" fill="white" stroke="#021526"/>
<path d="M6.75 8.5H7.91667H17.25" stroke="#021526" stroke-linecap="round" stroke-linejoin="round"/>
<path d="M16.0833 8.5V16.6667C16.0833 16.9761 15.9604 17.2728 15.7416 17.4916C15.5228 17.7104 15.2261 17.8333 14.9167 17.8333H9.08333C8.77391 17.8333 8.47717 17.7104 8.25838 17.4916C8.03958 17.2728 7.91667 16.9761 7.91667 16.6667V8.5M9.66667 8.5V7.33333C9.66667 7.02392 9.78958 6.72717 10.0084 6.50838C10.2272 6.28958 10.5239 6.16667 10.8333 6.16667H13.1667C13.4761 6.16667 13.7728 6.28958 13.9916 6.50838C14.2104 6.72717 14.3333 7.02392 14.3333 7.33333V8.5" stroke="#021526" stroke-linecap="round" stroke-linejoin="round"/>
<path d="M10.8333 11.4167V14.9167" stroke="#021526" stroke-linecap="round" stroke-linejoin="round"/>
<path d="M13.1667 11.4167V14.9167" stroke="#021526" stroke-linecap="round" stroke-linejoin="round"/>
</svg>
